<svg id="layer_1" data-name="layer 1" xmlns="http://www.w3.org/2000/svg" viewBox="0 0 130.74 115.36"><path d="M35.5,74a2.22,2.22,0,0,0,.51-.06L84.5,64.08a2.63,2.63,0,0,0,1.81-1.38c5.07-10.15,4.43-23.19-1.86-37.7A93,93,0,0,0,73.52,6.25a2.61,2.61,0,0,0-2.32-1L39.83,8.74a2.6,2.6,0,0,0-2.29,2.87,2.66,2.66,0,0,0,.07.39C44.25,36.33,33.15,70.19,33,70.53A2.66,2.66,0,0,0,35.5,74ZM70.28,10.6c4,5.51,20.2,29.85,11.91,48.65l-8.34,1.69c8.83-22-2.76-42.84-7.46-49.91Zm-9.81,1.13c.2.26,19.58,25.55,7.08,50.48L56,64.55c4.6-9.61,5.83-21.49,3.52-34.79l0,0a92.44,92.44,0,0,0-4.84-17.44ZM43.34,13.58l6-.67c2.8,6.91,12.23,33.58,0,53l-10.1,2C42,58.25,47.74,33.89,43.34,13.58Z" style="fill:#2f599c"/><path d="M128.12,60.48l0-.1c-11.07,0-15.68,8.61-16.95,14.72H2.6A2.6,2.6,0,0,0,0,77.68a2.54,2.54,0,0,0,.12.78c.4,1.3,8.77,27.77,26.65,34.9H0v2H72v-.07l17.13.07a2.56,2.56,0,0,0,1.3-.35c.93-.54,22.81-13.48,25.52-37,0-.5,1.18-12.33,12.13-12.33a2.6,2.6,0,0,0,0-5.2ZM88.45,110.16l-52.61-.22c-8.38,0-15.06-5.56-20-12.11H102A58.25,58.25,0,0,1,88.45,110.16Zm17.09-17.53H12.31a83.06,83.06,0,0,1-6-12.33h104.1A38.9,38.9,0,0,1,105.54,92.63Z" style="fill:#2f599c"/><path d="M97.89,6.29a.59.59,0,0,1,.16.51L97.6,9.45a.58.58,0,0,0,.49.66.54.54,0,0,0,.35-.06l2.37-1.26a.64.64,0,0,1,.54,0L103.73,10a.56.56,0,0,0,.77-.23.63.63,0,0,0,.06-.38l-.46-2.65a.58.58,0,0,1,.16-.5l1.92-1.89a.56.56,0,0,0,.06-.8.53.53,0,0,0-.38-.2L103.2,3a.54.54,0,0,1-.43-.31L101.57.32a.56.56,0,0,0-.75-.25.55.55,0,0,0-.25.25L99.36,2.74a.54.54,0,0,1-.43.31l-2.66.39a.58.58,0,0,0-.5.65.59.59,0,0,0,.18.35Z" style="fill:#2f599c"/><path d="M110,31.22a1,1,0,0,1,.28.87l-.77,4.54a1,1,0,0,0,.9,1.09.93.93,0,0,0,.52-.09L115,35.5a1,1,0,0,1,.91,0L120,37.63a1,1,0,0,0,1.33-.48.93.93,0,0,0,.09-.52l-.79-4.53a1,1,0,0,1,.27-.87L124.14,28a1,1,0,0,0-.06-1.41,1,1,0,0,0-.48-.25l-4.6-.68a1,1,0,0,1-.74-.53l-2-4.12a1,1,0,0,0-1.36-.39,1,1,0,0,0-.39.39l-2,4.13a1,1,0,0,1-.74.54l-4.55.67a1,1,0,0,0-.8,1.17,1,1,0,0,0,.26.5Z" style="fill:#2f599c"/></svg>